<svg width="20" height="17" viewBox="0 0 20 17" fill="none" xmlns="http://www.w3.org/2000/svg">
<path d="M3.35357 9.76478C5.20566 9.76478 6.70709 11.2662 6.70709 13.1183C6.70709 14.9705 5.20568 16.4719 3.35353 16.4719C1.50146 16.4719 0 14.9705 0 13.1183C0.00194635 11.267 1.50223 9.76674 3.35337 9.76478H3.35357ZM3.35357 14.7388C4.2485 14.7388 4.974 14.0133 4.974 13.1183C4.974 12.2234 4.2485 11.4978 3.35355 11.4978C2.45857 11.4978 1.73307 12.2234 1.73307 13.1183C1.73404 14.0128 2.45896 14.7378 3.35341 14.7388H3.35353H3.35357ZM16.6464 9.76478C18.4985 9.76478 20 11.2662 20 13.1183C20 14.9705 18.4985 16.4719 16.6464 16.4719C14.7943 16.4719 13.2929 14.9705 13.2929 13.1183C13.2949 11.267 14.7951 9.76674 16.6462 9.76478H16.6464ZM16.6464 14.7388C17.5414 14.7388 18.2669 14.0133 18.2669 13.1183C18.2669 12.2234 17.5414 11.4978 16.6464 11.4978C15.7515 11.4978 15.026 12.2234 15.026 13.1183C15.0269 14.0128 15.7519 14.7378 16.6463 14.7388H16.6464ZM15.7885 13.2414L14.2313 2.35577H12.4983V0.622681H15.7366L17.5043 12.9953L15.7885 13.2414ZM11.4393 13.9676H3.35357V12.2344H10.2158C11.4817 9.28216 14.3631 7.25172 17.7188 7.25172C17.7296 7.25172 17.7404 7.25172 17.7512 7.25178H19.9653V8.98487H17.747C17.7396 8.98483 17.7308 8.98483 17.7221 8.98483C14.904 8.98483 12.5105 10.8027 11.6502 13.3297L11.6369 13.3748L11.4393 13.9676ZM7.84836 8.17897H0.0346451V6.44593H7.84818C8.26739 6.44593 8.62341 6.17533 8.75104 5.79928L8.75302 5.79256C9.12039 4.71302 10.1253 3.95026 11.3083 3.95026H15.5372V5.68335H11.3085H11.3085C10.8865 5.68335 10.5281 5.95526 10.3989 6.33344L10.3969 6.34019C10.0329 7.41734 9.03147 8.17901 7.85213 8.17901H7.84814H7.84834L7.84836 8.17897ZM7.58404 13.5481L4.26518 7.73705L5.76952 6.87049L9.09013 12.6885L7.58404 13.5481ZM15.9272 9.00223H10.4731L8.68544 7.21451L9.91334 5.98922L11.1932 7.26914H15.9272L15.9272 9.00223Z" fill="black"/>
</svg>
